<mxfile host="app.diagrams.net" modified="2021-04-16T02:12:37.869Z" agent="5.0 (Windows NT 10.0; Win64; x64) AppleWebKit/537.36 (KHTML, like Gecko) Chrome/89.0.4389.128 Safari/537.36" etag="9duNLrbay-hytQ3hLqjq" version="14.6.0" type="github">
  <diagram id="Irycxqeza-r7v9318HG9" name="Page-1">
    <mxGraphModel dx="1360" dy="838" grid="1" gridSize="10" guides="1" tooltips="1" connect="1" arrows="1" fold="1" page="1" pageScale="1" pageWidth="1100" pageHeight="850" math="0" shadow="0">
      <root>
        <mxCell id="0" />
        <mxCell id="1" parent="0" />
        <mxCell id="oyrPWTTYYR-CYB85fI3u-4" style="edgeStyle=orthogonalEdgeStyle;rounded=0;orthogonalLoop=1;jettySize=auto;html=1;startArrow=none;" edge="1" parent="1" source="oyrPWTTYYR-CYB85fI3u-28" target="oyrPWTTYYR-CYB85fI3u-3">
          <mxGeometry relative="1" as="geometry" />
        </mxCell>
        <mxCell id="oyrPWTTYYR-CYB85fI3u-14" value="" style="edgeStyle=orthogonalEdgeStyle;rounded=0;orthogonalLoop=1;jettySize=auto;html=1;startArrow=none;" edge="1" parent="1" source="oyrPWTTYYR-CYB85fI3u-29" target="oyrPWTTYYR-CYB85fI3u-13">
          <mxGeometry relative="1" as="geometry" />
        </mxCell>
        <mxCell id="oyrPWTTYYR-CYB85fI3u-36" style="edgeStyle=orthogonalEdgeStyle;rounded=0;orthogonalLoop=1;jettySize=auto;html=1;exitX=1;exitY=0;exitDx=0;exitDy=0;" edge="1" parent="1" source="oyrPWTTYYR-CYB85fI3u-2">
          <mxGeometry relative="1" as="geometry">
            <mxPoint x="960" y="120" as="targetPoint" />
          </mxGeometry>
        </mxCell>
        <mxCell id="oyrPWTTYYR-CYB85fI3u-37" value="Scale Down" style="edgeLabel;html=1;align=center;verticalAlign=middle;resizable=0;points=[];" vertex="1" connectable="0" parent="oyrPWTTYYR-CYB85fI3u-36">
          <mxGeometry x="0.8678" y="1" relative="1" as="geometry">
            <mxPoint as="offset" />
          </mxGeometry>
        </mxCell>
        <mxCell id="oyrPWTTYYR-CYB85fI3u-2" value="Start" style="ellipse;whiteSpace=wrap;html=1;aspect=fixed;" vertex="1" parent="1">
          <mxGeometry x="385" y="10" width="80" height="80" as="geometry" />
        </mxCell>
        <mxCell id="oyrPWTTYYR-CYB85fI3u-6" style="edgeStyle=orthogonalEdgeStyle;rounded=0;orthogonalLoop=1;jettySize=auto;html=1;exitX=0.5;exitY=1;exitDx=0;exitDy=0;entryX=0.5;entryY=0;entryDx=0;entryDy=0;" edge="1" parent="1" source="oyrPWTTYYR-CYB85fI3u-3" target="oyrPWTTYYR-CYB85fI3u-5">
          <mxGeometry relative="1" as="geometry" />
        </mxCell>
        <mxCell id="oyrPWTTYYR-CYB85fI3u-3" value="Active Desktop Providers &amp;lt; Minimum Capacity" style="whiteSpace=wrap;html=1;" vertex="1" parent="1">
          <mxGeometry x="50" y="130" width="120" height="60" as="geometry" />
        </mxCell>
        <mxCell id="oyrPWTTYYR-CYB85fI3u-8" value="" style="edgeStyle=orthogonalEdgeStyle;rounded=0;orthogonalLoop=1;jettySize=auto;html=1;" edge="1" parent="1" source="oyrPWTTYYR-CYB85fI3u-5" target="oyrPWTTYYR-CYB85fI3u-7">
          <mxGeometry relative="1" as="geometry" />
        </mxCell>
        <mxCell id="oyrPWTTYYR-CYB85fI3u-11" value="" style="edgeStyle=orthogonalEdgeStyle;rounded=0;orthogonalLoop=1;jettySize=auto;html=1;" edge="1" parent="1" source="oyrPWTTYYR-CYB85fI3u-5" target="oyrPWTTYYR-CYB85fI3u-10">
          <mxGeometry relative="1" as="geometry" />
        </mxCell>
        <mxCell id="oyrPWTTYYR-CYB85fI3u-5" value="Minimum Capacity &amp;lt; Scaling Optimizer" style="rhombus;whiteSpace=wrap;html=1;" vertex="1" parent="1">
          <mxGeometry x="35" y="220" width="150" height="110" as="geometry" />
        </mxCell>
        <mxCell id="oyrPWTTYYR-CYB85fI3u-7" value="Start Stopped Desktop Providers" style="whiteSpace=wrap;html=1;" vertex="1" parent="1">
          <mxGeometry x="240" y="245" width="120" height="60" as="geometry" />
        </mxCell>
        <mxCell id="oyrPWTTYYR-CYB85fI3u-9" value="Yes" style="text;html=1;align=center;verticalAlign=middle;resizable=0;points=[];autosize=1;strokeColor=none;" vertex="1" parent="1">
          <mxGeometry x="185" y="245" width="40" height="20" as="geometry" />
        </mxCell>
        <mxCell id="oyrPWTTYYR-CYB85fI3u-10" value="VM Creation to meet minimum capacity" style="whiteSpace=wrap;html=1;" vertex="1" parent="1">
          <mxGeometry x="50" y="380" width="120" height="60" as="geometry" />
        </mxCell>
        <mxCell id="oyrPWTTYYR-CYB85fI3u-12" value="No" style="text;html=1;align=center;verticalAlign=middle;resizable=0;points=[];autosize=1;strokeColor=none;" vertex="1" parent="1">
          <mxGeometry x="120" y="350" width="30" height="20" as="geometry" />
        </mxCell>
        <mxCell id="oyrPWTTYYR-CYB85fI3u-15" style="edgeStyle=orthogonalEdgeStyle;rounded=0;orthogonalLoop=1;jettySize=auto;html=1;" edge="1" parent="1" source="oyrPWTTYYR-CYB85fI3u-13" target="oyrPWTTYYR-CYB85fI3u-16">
          <mxGeometry relative="1" as="geometry">
            <mxPoint x="425" y="350" as="targetPoint" />
          </mxGeometry>
        </mxCell>
        <mxCell id="oyrPWTTYYR-CYB85fI3u-13" value="Active Desktop Providers &amp;gt; Max Capacity" style="whiteSpace=wrap;html=1;" vertex="1" parent="1">
          <mxGeometry x="365" y="130" width="120" height="60" as="geometry" />
        </mxCell>
        <mxCell id="oyrPWTTYYR-CYB85fI3u-17" style="edgeStyle=orthogonalEdgeStyle;rounded=0;orthogonalLoop=1;jettySize=auto;html=1;" edge="1" parent="1" source="oyrPWTTYYR-CYB85fI3u-16">
          <mxGeometry relative="1" as="geometry">
            <mxPoint x="280" y="420" as="targetPoint" />
          </mxGeometry>
        </mxCell>
        <mxCell id="oyrPWTTYYR-CYB85fI3u-20" style="edgeStyle=orthogonalEdgeStyle;rounded=0;orthogonalLoop=1;jettySize=auto;html=1;" edge="1" parent="1" source="oyrPWTTYYR-CYB85fI3u-16">
          <mxGeometry relative="1" as="geometry">
            <mxPoint x="425" y="470" as="targetPoint" />
          </mxGeometry>
        </mxCell>
        <mxCell id="oyrPWTTYYR-CYB85fI3u-16" value="Maximum Capacity &amp;lt; Scaling Optimizer" style="rhombus;whiteSpace=wrap;html=1;" vertex="1" parent="1">
          <mxGeometry x="355" y="280" width="140" height="130" as="geometry" />
        </mxCell>
        <mxCell id="oyrPWTTYYR-CYB85fI3u-18" value="Stop VMs&lt;br&gt;" style="whiteSpace=wrap;html=1;" vertex="1" parent="1">
          <mxGeometry x="220" y="420" width="120" height="60" as="geometry" />
        </mxCell>
        <mxCell id="oyrPWTTYYR-CYB85fI3u-19" value="Yes&lt;br&gt;" style="text;html=1;align=center;verticalAlign=middle;resizable=0;points=[];autosize=1;strokeColor=none;" vertex="1" parent="1">
          <mxGeometry x="280" y="350" width="40" height="20" as="geometry" />
        </mxCell>
        <mxCell id="oyrPWTTYYR-CYB85fI3u-21" value="No" style="text;html=1;align=center;verticalAlign=middle;resizable=0;points=[];autosize=1;strokeColor=none;" vertex="1" parent="1">
          <mxGeometry x="425" y="420" width="30" height="20" as="geometry" />
        </mxCell>
        <mxCell id="oyrPWTTYYR-CYB85fI3u-23" value="Delete VMs" style="whiteSpace=wrap;html=1;" vertex="1" parent="1">
          <mxGeometry x="365" y="480" width="120" height="60" as="geometry" />
        </mxCell>
        <mxCell id="oyrPWTTYYR-CYB85fI3u-26" value="Minimum &amp;lt; Active &amp;lt; Maximum Desktop Providers" style="whiteSpace=wrap;html=1;" vertex="1" parent="1">
          <mxGeometry x="660" y="130" width="120" height="60" as="geometry" />
        </mxCell>
        <mxCell id="oyrPWTTYYR-CYB85fI3u-39" style="edgeStyle=orthogonalEdgeStyle;rounded=0;orthogonalLoop=1;jettySize=auto;html=1;entryX=0.5;entryY=0;entryDx=0;entryDy=0;" edge="1" parent="1" source="oyrPWTTYYR-CYB85fI3u-30" target="oyrPWTTYYR-CYB85fI3u-26">
          <mxGeometry relative="1" as="geometry" />
        </mxCell>
        <mxCell id="oyrPWTTYYR-CYB85fI3u-30" value="Scale Up&lt;br&gt;" style="text;html=1;align=center;verticalAlign=middle;resizable=0;points=[];autosize=1;strokeColor=none;" vertex="1" parent="1">
          <mxGeometry x="690" y="70" width="60" height="20" as="geometry" />
        </mxCell>
        <mxCell id="oyrPWTTYYR-CYB85fI3u-31" value="" style="edgeStyle=orthogonalEdgeStyle;rounded=0;orthogonalLoop=1;jettySize=auto;html=1;entryX=0.5;entryY=0;entryDx=0;entryDy=0;endArrow=none;" edge="1" parent="1" source="oyrPWTTYYR-CYB85fI3u-2" target="oyrPWTTYYR-CYB85fI3u-30">
          <mxGeometry relative="1" as="geometry">
            <mxPoint x="465" y="50" as="sourcePoint" />
            <mxPoint x="630" y="130" as="targetPoint" />
          </mxGeometry>
        </mxCell>
        <mxCell id="oyrPWTTYYR-CYB85fI3u-29" value="Meeting Maximum Capacity" style="text;html=1;align=center;verticalAlign=middle;resizable=0;points=[];autosize=1;strokeColor=none;" vertex="1" parent="1">
          <mxGeometry x="345" y="90" width="160" height="20" as="geometry" />
        </mxCell>
        <mxCell id="oyrPWTTYYR-CYB85fI3u-32" value="" style="edgeStyle=orthogonalEdgeStyle;rounded=0;orthogonalLoop=1;jettySize=auto;html=1;endArrow=none;" edge="1" parent="1" source="oyrPWTTYYR-CYB85fI3u-2" target="oyrPWTTYYR-CYB85fI3u-29">
          <mxGeometry relative="1" as="geometry">
            <mxPoint x="425" y="90" as="sourcePoint" />
            <mxPoint x="425" y="130" as="targetPoint" />
            <Array as="points">
              <mxPoint x="425" y="100" />
              <mxPoint x="425" y="100" />
            </Array>
          </mxGeometry>
        </mxCell>
        <mxCell id="oyrPWTTYYR-CYB85fI3u-28" value="Meeting Minimum Capacity" style="text;html=1;align=center;verticalAlign=middle;resizable=0;points=[];autosize=1;strokeColor=none;" vertex="1" parent="1">
          <mxGeometry x="50" y="70" width="160" height="20" as="geometry" />
        </mxCell>
        <mxCell id="oyrPWTTYYR-CYB85fI3u-35" value="" style="edgeStyle=orthogonalEdgeStyle;rounded=0;orthogonalLoop=1;jettySize=auto;html=1;endArrow=none;" edge="1" parent="1" source="oyrPWTTYYR-CYB85fI3u-2" target="oyrPWTTYYR-CYB85fI3u-28">
          <mxGeometry relative="1" as="geometry">
            <mxPoint x="385" y="50" as="sourcePoint" />
            <mxPoint x="110" y="130" as="targetPoint" />
          </mxGeometry>
        </mxCell>
        <mxCell id="oyrPWTTYYR-CYB85fI3u-38" value="Minimum &amp;lt; Active &amp;lt; Maximum Desktop Providers" style="whiteSpace=wrap;html=1;" vertex="1" parent="1">
          <mxGeometry x="900" y="130" width="120" height="60" as="geometry" />
        </mxCell>
      </root>
    </mxGraphModel>
  </diagram>
</mxfile>
